<?xml version="1.0" standalone="no"?>
<!DOCTYPE svg PUBLIC "-//W3C//DTD SVG 20010904//EN"
 "http://www.w3.org/TR/2001/REC-SVG-20010904/DTD/svg10.dtd">
<svg version="1.0" xmlns="http://www.w3.org/2000/svg"
 width="700.000000pt" height="700.000000pt" viewBox="0 0 700.000000 700.000000"
 preserveAspectRatio="xMidYMid meet">
<metadata>
Created by potrace 1.11, written by Peter Selinger 2001-2013
</metadata>
<g transform="translate(0.000000,700.000000) scale(0.100000,-0.100000)"
fill="#000000" stroke="none">
<path d="M1949 6093 c-12 -21 -32 -54 -44 -73 -20 -31 -135 -229 -187 -320
-11 -19 -42 -72 -69 -118 -27 -45 -49 -87 -49 -92 0 -6 -4 -10 -10 -10 -5 0
-10 -4 -10 -10 0 -5 -21 -44 -46 -87 -26 -43 -56 -94 -66 -113 -11 -19 -49
-83 -84 -143 -35 -59 -64 -109 -64 -111 0 -2 -36 -63 -80 -136 -44 -73 -80
-134 -80 -135 0 -2 -28 -50 -61 -107 -34 -57 -72 -121 -84 -143 -13 -22 -69
-119 -126 -215 -56 -96 -112 -193 -124 -215 -12 -22 -54 -93 -94 -159 -39 -65
-71 -120 -71 -122 0 -2 -36 -64 -80 -138 -44 -74 -80 -137 -80 -140 0 -4 291
-504 646 -1114 356 -609 657 -1125 669 -1147 13 -22 65 -112 117 -200 l94
-160 1534 0 1534 0 69 115 c37 63 72 124 78 135 5 11 17 34 28 50 31 52 472
808 499 855 13 25 28 50 32 55 4 6 32 53 62 105 61 106 464 795 497 850 11 19
24 42 28 50 4 8 50 87 102 175 52 88 103 176 113 195 l19 35 -72 125 c-40 69
-102 176 -138 238 -36 62 -74 127 -85 145 -55 94 -218 374 -225 387 -23 38
-297 507 -307 525 -6 11 -42 72 -79 135 -37 63 -75 129 -85 145 -9 17 -66 113
-125 215 -59 102 -136 235 -172 295 -35 61 -68 117 -73 125 -23 37 -125 216
-129 225 -2 5 -7 12 -10 15 -3 3 -11 14 -17 25 -11 20 -23 20 -1542 23 l-1530
2 -23 -37z m2819 -417 c5 -6 21 -31 34 -56 40 -72 177 -309 220 -379 21 -34
38 -66 38 -70 0 -3 11 -22 23 -41 13 -19 35 -55 49 -80 14 -25 119 -207 233
-405 114 -198 218 -378 230 -400 13 -22 62 -107 110 -190 48 -82 97 -166 108
-185 10 -19 62 -109 114 -198 53 -92 93 -171 90 -180 -2 -10 -115 -208 -250
-441 l-245 -425 -1229 0 -1228 -1 -1 -215 -1 -215 1102 -5 1102 -5 -79 -135
c-43 -74 -83 -144 -88 -155 -6 -11 -83 -146 -173 -300 l-163 -280 -1264 0
-1265 0 -102 175 c-56 96 -106 182 -110 190 -4 8 -20 38 -36 65 -17 28 -35 59
-41 70 -19 34 -140 245 -157 273 -9 15 -27 47 -41 72 -66 117 -143 248 -160
273 -11 15 -16 27 -12 27 4 0 0 8 -8 18 -13 14 -73 117 -160 270 -10 18 -53
93 -95 165 -276 478 -333 578 -333 589 1 7 56 108 124 223 l122 210 1787 1
c983 0 1790 3 1793 6 10 11 10 428 -1 431 -5 2 -754 3 -1662 3 -1522 -1 -1653
0 -1653 15 0 9 7 22 15 29 8 7 15 17 15 22 0 5 16 34 35 64 19 30 35 56 35 58
0 3 27 51 60 108 33 57 64 110 69 118 4 8 21 17 37 20 16 3 415 5 887 5 l857
-1 0 218 0 218 -755 0 c-415 0 -755 2 -755 4 0 4 125 224 169 297 11 19 30 52
42 74 12 22 25 45 30 51 13 16 2525 16 2537 0z"/>
<path d="M2189 3495 c-1 -16 -1 -293 0 -365 l1 -65 1310 0 1310 0 1 25 c3 111
-1 403 -5 408 -11 10 -2616 8 -2617 -3z"/>
</g>
</svg>
