<?xml version="1.0" encoding="UTF-8" standalone="no"?>
<!-- Created with Inkscape (http://www.inkscape.org/) -->
<svg xmlns:rdf="http://www.w3.org/1999/02/22-rdf-syntax-ns#" xmlns="http://www.w3.org/2000/svg" height="64" width="64" version="1.1" xmlns:cc="http://creativecommons.org/ns#" xmlns:dc="http://purl.org/dc/elements/1.1/" viewBox="0 0 16.933332 16.933332"><defs><clipPath id="clipPath4738" clipPathUnits="userSpaceOnUse"><path style="color-rendering:auto;color:#000000;isolation:auto;mix-blend-mode:normal;shape-rendering:auto;solid-color:#000000;image-rendering:auto" fill="#fff" transform="matrix(1.1022 0 0 1.0909 -.86542 -26.231)" stroke-width="0" d="m15.188 288.53-3.3607 5.8208h-6.721l-3.3607-5.8208 3.3607-5.8208h6.7213z"/></clipPath></defs><metadata><rdf:RDF><cc:Work rdf:about=""><dc:format>image/svg+xml</dc:format><dc:type rdf:resource="http://purl.org/dc/dcmitype/StillImage"/><dc:title/></cc:Work></rdf:RDF></metadata><rect style="color-rendering:auto;color:#000000;isolation:auto;mix-blend-mode:normal;shape-rendering:auto;solid-color:#000000;image-rendering:auto" height="19.05" width="19.05" display="none" y="-1.0583" x="-1.0583" fill="#333"/><g transform="translate(0 -280.07)"><g clip-path="url(#clipPath4738)"><rect style="color-rendering:auto;color:#000000;isolation:auto;mix-blend-mode:normal;shape-rendering:auto;solid-color:#000000;image-rendering:auto" height="14.817" width="14.817" display="none" y="281.12" x="1.0583" fill="#f0f0f0"/><g stroke-width="0" fill="#0275d8"><path style="color-rendering:auto;color:#000000;isolation:auto;mix-blend-mode:normal;shape-rendering:auto;solid-color:#000000;image-rendering:auto" d="m1.0583 280.07c-0.58628 0-1.0583 0.47-1.0583 1.06v14.817c0 0.58632 0.47202 1.0583 1.0583 1.0583h14.817c0.58632 0 1.0583-0.47201 1.0583-1.0583v-14.817c0-0.58631-0.47202-1.0583-1.0583-1.0583zm4.3532 3.175h6.1102l3.0551 5.2917-3.0551 5.2917h-6.1104l-3.0551-5.2917z"/><rect style="color-rendering:auto;color:#000000;isolation:auto;mix-blend-mode:normal;shape-rendering:auto;solid-color:#000000;image-rendering:auto" ry="0" height="1.0583" width="5.2917" y="284.3" x="3.175"/><rect style="color-rendering:auto;color:#000000;isolation:auto;mix-blend-mode:normal;shape-rendering:auto;solid-color:#000000;image-rendering:auto" ry="0" height="1.0583" width="10.054" y="286.42" x="1.5875"/><rect style="color-rendering:auto;color:#000000;isolation:auto;mix-blend-mode:normal;shape-rendering:auto;solid-color:#000000;image-rendering:auto" ry="0" height="1.0583" width="7.4083" y="290.65" x="7.4083"/><rect style="color-rendering:auto;color:#000000;isolation:auto;mix-blend-mode:normal;shape-rendering:auto;solid-color:#000000;image-rendering:auto" ry="0" height="1.0583" width="6.35" y="288.53" x="5.2917"/></g></g></g></svg>
