<?xml version="1.0" encoding="UTF-8" standalone="no"?>
<!-- Created with Inkscape (http://www.inkscape.org/) -->
<svg xmlns:rdf="http://www.w3.org/1999/02/22-rdf-syntax-ns#" xmlns="http://www.w3.org/2000/svg" height="64" width="64" version="1.1" xmlns:cc="http://creativecommons.org/ns#" xmlns:dc="http://purl.org/dc/elements/1.1/" viewBox="0 0 16.933332 16.933332"><metadata><rdf:RDF><cc:Work rdf:about=""><dc:format>image/svg+xml</dc:format><dc:type rdf:resource="http://purl.org/dc/dcmitype/StillImage"/><dc:title/></cc:Work></rdf:RDF></metadata><g transform="translate(0 -280.07)"><rect style="color-rendering:auto;color:#000000;isolation:auto;mix-blend-mode:normal;shape-rendering:auto;solid-color:#000000;image-rendering:auto" height="14.817" width="14.817" y="281.12" x="1.0583" fill="#fff"/><g stroke-width="0" fill="#0275d8"><path style="color-rendering:auto;color:#000000;isolation:auto;mix-blend-mode:normal;shape-rendering:auto;solid-color:#000000;image-rendering:auto" d="m4 0c-2.216 0-4 1.784-4 4v56c0 2.216 1.784 4 4 4h56c2.216 0 4-1.784 4-4v-56c0-2.216-1.784-4-4-4zm16.453 12h23.094l11.547 20-11.547 20h-23.094l-11.547-20z" transform="matrix(.26458 0 0 .26458 0 280.07)"/><rect style="color-rendering:auto;color:#000000;isolation:auto;mix-blend-mode:normal;shape-rendering:auto;solid-color:#000000;image-rendering:auto" ry="0" height="1.0583" width="5.2917" y="284.3" x="3.175"/><rect style="color-rendering:auto;color:#000000;isolation:auto;mix-blend-mode:normal;shape-rendering:auto;solid-color:#000000;image-rendering:auto" ry="0" height="1.0583" width="10.054" y="286.42" x="1.5875"/><rect style="color-rendering:auto;color:#000000;isolation:auto;mix-blend-mode:normal;shape-rendering:auto;solid-color:#000000;image-rendering:auto" ry="0" height="1.0583" width="7.4083" y="290.65" x="7.4083"/><rect style="color-rendering:auto;color:#000000;isolation:auto;mix-blend-mode:normal;shape-rendering:auto;solid-color:#000000;image-rendering:auto" ry="0" height="1.0583" width="6.35" y="288.53" x="5.2917"/></g><path style="color-rendering:auto;color:#000000;isolation:auto;mix-blend-mode:normal;shape-rendering:auto;solid-color:#000000;image-rendering:auto" d="m15.188 288.53-3.3607 5.8208h-6.721l-3.3607-5.8208 3.3607-5.8208h6.7213z" transform="matrix(1.1022 0 0 1.0909 -.86542 -26.231)" stroke-width="0" display="none" fill="#fff"/></g></svg>
